<?xml version="1.0" encoding="UTF-8"?>
<svg xmlns="http://www.w3.org/2000/svg" version="1.1" viewBox="0 0 424.34 385.15">
  <defs>
    <style>
      .cls-1 {
        stroke: #099e3e;
      }

      .cls-1, .cls-2, .cls-3, .cls-4, .cls-5, .cls-6, .cls-7, .cls-8, .cls-9, .cls-10, .cls-11, .cls-12, .cls-13, .cls-14 {
        fill: none;
      }

      .cls-1, .cls-2, .cls-3, .cls-4, .cls-6, .cls-7, .cls-8, .cls-9, .cls-10, .cls-11, .cls-12, .cls-13, .cls-14 {
        stroke-miterlimit: 10;
      }

      .cls-2 {
        stroke: #6ea63b;
      }

      .cls-3 {
        stroke: #8aaa39;
      }

      .cls-4 {
        stroke: #eab233;
      }

      .cls-5 {
        stroke: #1d1d1b;
      }

      .cls-6 {
        stroke: #4ca23d;
      }

      .cls-7 {
        stroke: #dab234;
      }

      .cls-8 {
        stroke: #c9b134;
      }

      .cls-9 {
        stroke: #a1ad37;
      }

      .cls-10 {
        stroke: #3bb07b;
      }

      .cls-11 {
        stroke: #f9b233;
      }

      .cls-12 {
        stroke: #009640;
      }

      .cls-13 {
        stroke: #b5af36;
      }

      .cls-14 {
        stroke: #009a3f;
      }
    </style>
  </defs>
  <!-- Generator: Adobe Illustrator 28.6.0, SVG Export Plug-In . SVG Version: 1.2.0 Build 709)  -->
  <g>
    <g id="Capa_1">
      <circle class="cls-10" cx="130.12" cy="223.28" r="38.28"/>
      <g>
        <ellipse class="cls-11" cx="211.66" cy="190.21" rx="78.61" ry="162.5"/>
        <path class="cls-4" d="M222.92,346.24c-42.61,2.73-78.32-62.53-79.76-145.77s31.93-152.94,74.54-155.67c42.61-2.73,78.32,62.53,79.76,145.77,1.44,83.24-31.93,152.94-74.54,155.67Z"/>
        <path class="cls-7" d="M234.18,339.78c-41.8,5.47-78.02-52.3-80.9-129.04s28.67-143.38,70.47-148.85,78.02,52.3,80.9,129.04-28.67,143.38-70.47,148.85Z"/>
        <path class="cls-8" d="M245.45,333.32c-40.99,8.2-77.73-42.08-82.05-112.31s25.4-133.82,66.39-142.02c40.99-8.2,77.73,42.08,82.05,112.31s-25.4,133.82-66.39,142.02Z"/>
        <path class="cls-13" d="M256.71,326.85c-40.18,10.94-77.43-31.86-83.2-95.58-5.76-63.73,22.14-124.26,62.32-135.2,40.18-10.94,77.43,31.86,83.2,95.58,5.76,63.73-22.14,124.26-62.32,135.2Z"/>
        <path class="cls-9" d="M267.97,320.39c-39.38,13.67-77.14-21.63-84.34-78.85-7.21-57.22,18.87-114.7,58.25-128.37,39.38-13.67,77.14,21.63,84.34,78.85,7.21,57.22-18.87,114.7-58.25,128.37Z"/>
        <path class="cls-3" d="M279.24,313.93c-38.57,16.41-76.84-11.41-85.49-62.12-8.65-50.72,15.61-105.14,54.18-121.54,38.57-16.41,76.84,11.41,85.49,62.12s-15.61,105.14-54.18,121.54Z"/>
        <path class="cls-2" d="M290.5,307.46c-37.76,19.14-76.55-1.18-86.64-45.4-10.09-44.21,12.34-95.57,50.1-114.72,37.76-19.14,76.55,1.18,86.64,45.4,10.09,44.21-12.34,95.57-50.1,114.72Z"/>
        <path class="cls-6" d="M301.76,301c-36.95,21.88-76.25,9.04-87.78-28.67-11.53-37.71,9.08-86.01,46.03-107.89,36.95-21.88,76.25-9.04,87.78,28.67,11.53,37.71-9.08,86.01-46.03,107.89Z"/>
        <path class="cls-1" d="M313.02,294.54c-36.14,24.61-75.96,19.27-88.93-11.94-12.97-31.2,5.81-76.45,41.96-101.07,36.14-24.61,75.96-19.27,88.93,11.94,12.97,31.2-5.81,76.45-41.96,101.07Z"/>
        <path class="cls-14" d="M324.29,288.07c-35.34,27.35-75.66,29.49-90.07,4.79-14.41-24.7,2.55-66.89,37.89-94.24,35.34-27.35,75.66-29.49,90.07-4.79s-2.55,66.89-37.89,94.24Z"/>
        <ellipse class="cls-12" cx="306.84" cy="248.67" rx="82.92" ry="43.7" transform="translate(-87.86 262.74) rotate(-41.06)"/>
      </g>
      <path class="cls-5" d="M400.69,148.48c0,5.19-.61,10.66-1.83,16.4-1.22,5.75-2.39,8.62-3.51,8.62-.61,0-.92-.31-.92-.92,0-.71.1-1.37.31-1.98,2.34-6.2,3.51-13.48,3.51-21.82,0-12.82-3.9-23.12-11.69-30.9-7.79-7.78-18.1-11.67-30.93-11.67-24.65,0-48.52,11.71-71.64,35.13,8.76,16.29,13.14,33.5,13.14,51.63,0,33.4-12.81,61.71-38.42,84.93-25.61,23.22-56.9,34.83-93.86,34.83-11.41,0-27.04-1.58-46.89-4.74-17.21,3.15-33.71,4.74-49.49,4.74-26.88,0-40.33-2.7-40.33-8.1,0-2.65,3.28-4.99,9.85-7.03,6.57-2.04,14.23-3.05,22.99-3.05,10.59,0,31.67,3.46,63.24,10.39,21.28-5.6,38.03-14.41,50.25-26.43,11.91-11.71,30.19-37.22,54.84-76.53,14.87-23.83,31.21-44.14,49.03-60.95-14.87-25.05-38.95-37.58-72.25-37.58s-65.99,13.54-94.7,40.63c-14.46,13.65-26.02,28.72-34.67,45.21-8.66,16.5-12.98,31.67-12.98,45.52,0,11,3.49,19.81,10.46,26.43,6.97,6.62,16.21,9.93,27.72,9.93,19.45,0,39.64-10.49,60.56-31.47,20.93-20.98,31.39-41.14,31.39-60.49,0-7.33-2.04-13.24-6.11-17.72-4.07-4.48-9.42-6.72-16.04-6.72-7.54,0-11.3,1.22-11.3,3.67,0,.71.56,1.07,1.68,1.07.61,0,1.12-.1,1.53-.31h2.14c4.99,0,7.48,2.29,7.48,6.87,0,3.36-1.28,6.29-3.82,8.78-2.55,2.5-5.55,3.74-9.01,3.74-6.21,0-9.32-3.36-9.32-10.08,0-4.58,2.04-8.5,6.11-11.76,4.07-3.26,9.01-4.89,14.82-4.89,7.43,0,13.47,2.47,18.1,7.41,4.63,4.94,6.95,11.38,6.95,19.32,0,20.57-10.72,41.6-32.15,63.08-21.44,21.49-42.44,32.23-63.01,32.23-14.15,0-25.81-4.71-34.98-14.13-9.16-9.42-13.75-21.51-13.75-36.28,0-31.67,15.63-60.05,46.89-85.16,31.26-25.1,66.6-37.65,106.01-37.65,33.5,0,58.75,12.37,75.76,37.12,24.84-22.91,50.1-34.37,75.76-34.37,12.83,0,23.22,4.15,31.16,12.44,7.94,8.29,11.91,19.15,11.91,32.57ZM112.61,307.08c-28.11-3.97-49.08-5.96-62.93-5.96-12.22,0-18.33,1.17-18.33,3.51,0,3.56,13.34,5.35,40.02,5.35,15.27,0,29.02-.97,41.24-2.9ZM288.88,181.67c0-13.03-2.75-25.25-8.25-36.66-13.75,15.68-26.07,35.39-36.96,59.11-14.36,31.47-29.23,54.13-44.6,67.97-15.89,14.15-39.16,25.51-69.81,34.06,12.95,2.75,26.71,4.12,41.28,4.12,39.04,0,70.64-18.89,94.79-56.67,15.69-24.44,23.54-48.42,23.54-71.94Z"/>
    </g>
  </g>
</svg>